HIERARCHY
ROOT Hips
{
  OFFSET 43.0842 91.1655 101.099
  CHANNELS 6 Xposition Yposition Zposition Zrotation Xrotation Yrotation
  JOINT LeftUpLeg
  {
    OFFSET 8.64259 1.95398 -2.38835
    CHANNELS 3 Zrotation Xrotation Yrotation
    JOINT LeftLeg
    {
      OFFSET 43.7702 0 0
      CHANNELS 3 Zrotation Xrotation Yrotation
      JOINT LeftFoot
      {
        OFFSET 40.6238 0 0
        CHANNELS 3 Zrotation Xrotation Yrotation
        JOINT LeftToeBase
        {
          OFFSET 12.7242 0 0
          CHANNELS 3 Zrotation Xrotation Yrotation
          End Site
          {
            OFFSET 0 0 0
          }
        }
      }
    }
  }
  JOINT RightUpLeg
  {
    OFFSET -8.2249 1.95398 -2.59336
    CHANNELS 3 Zrotation Xrotation Yrotation
    JOINT RightLeg
    {
      OFFSET 43.5653 0 0
      CHANNELS 3 Zrotation Xrotation Yrotation
      JOINT RightFoot
      {
        OFFSET 40.6238 0 0
        CHANNELS 3 Zrotation Xrotation Yrotation
        JOINT RightToeBase
        {
          OFFSET 12.7242 0 0
          CHANNELS 3 Zrotation Xrotation Yrotation
          End Site
          {
            OFFSET 0 0 0
          }
        }
      }
    }
  }
  JOINT Spine
  {
    OFFSET 0.165834 0.87714 6.61349
    CHANNELS 3 Zrotation Xrotation Yrotation
    JOINT Spine1
    {
      OFFSET 7.38963 1.71661e-005 0
      CHANNELS 3 Zrotation Xrotation Yrotation
      JOINT Spine2
      {
        OFFSET 11.9445 1.14441e-005 0
        CHANNELS 3 Zrotation Xrotation Yrotation
        JOINT Spine3
        {
          OFFSET 14.7254 4.19617e-005 0
          CHANNELS 3 Zrotation Xrotation Yrotation
          JOINT Spine4
          {
            OFFSET 10.9679 0 0
            CHANNELS 3 Zrotation Xrotation Yrotation
            JOINT RightShoulder
            {
              OFFSET 2.46616 -1.6653 3.69651
              CHANNELS 3 Zrotation Xrotation Yrotation
              JOINT RightArm
              {
                OFFSET 13.0012 0 0
                CHANNELS 3 Zrotation Xrotation Yrotation
                JOINT RightForeArm
                {
                  OFFSET 28.7848 1.52588e-005 0
                  CHANNELS 3 Zrotation Xrotation Yrotation
                  JOINT RightHand
                  {
                    OFFSET 26.5688 1.52588e-005 0
                    CHANNELS 3 Zrotation Xrotation Yrotation
                    End Site
                    {
                      OFFSET 0 0 0
                    }
                  }
                }
              }
            }
            JOINT LeftShoulder
            {
              OFFSET 2.38034 -1.29275 -3.7523
              CHANNELS 3 Zrotation Xrotation Yrotation
              JOINT LeftArm
              {
                OFFSET 16.3182 6.10351e-005 0
                CHANNELS 3 Zrotation Xrotation Yrotation
                JOINT LeftForeArm
                {
                  OFFSET 27.0901 0 0
                  CHANNELS 3 Zrotation Xrotation Yrotation
                  JOINT LeftHand
                  {
                    OFFSET 24.5451 1.52588e-005 0
                    CHANNELS 3 Zrotation Xrotation Yrotation
                    End Site
                    {
                      OFFSET 0 0 0
                    }
                  }
                }
              }
            }
            JOINT Neck
            {
              OFFSET 5.0226 -0.0266342 0
              CHANNELS 3 Zrotation Xrotation Yrotation
              JOINT Head
              {
                OFFSET 6.69364 2.86102e-005 0
                CHANNELS 3 Zrotation Xrotation Yrotation
                End Site
                {
                  OFFSET 0 0 0
                }
              }
            }
          }
        }
      }
    }
  }
}
MOTION
Frames:	9
Frame Time:	0.0333333
43.1074 97.3922 207.375 99.5756 -49.5191 98.4995 -174.701 0.752499 94.4259 -25.0096 18.7459 1.1279 65.3608 5.64203 9.78303 37.1188 6.53297 8.33454 174.94 1.82323 88.9396 -17.452 -1.19145 -1.71206 67.0289 -7.4688 1.55728 36.4287 -4.5252 1.09769 -1.49271 7.31455 -89.8729 12.2559 -2.90646 0.579598 0.587994 -2.87813 0.707051 -21.9732 -2.94615 -0.321481 -1.96054 -2.94616 -0.321481 95.4434 -49.2042 -92.5409 29.9316 -25.4398 14.9309 11.5396 2.20468 -123.771 -19.043 -5.05395 24.8526 -101.259 -55.212 64.1094 9.03366 46.5851 -35.1706 -13.8273 -6.22426 -96.0048 21.8718 2.61653 31.8055 -17.1528 -6.8117 -8.4596 -12.7768 -7.00693 0.280029 
43.0327 97.3862 207.625 99.2468 -49.2184 98.2594 -174.576 0.888866 94.6564 -24.9961 18.7181 1.12047 65.4961 5.86561 9.41559 37.108 6.54817 8.27474 174.878 1.16716 89.0382 -16.2653 -0.595722 -1.66053 67.4798 -7.98501 1.84824 35.9194 -4.31516 1.31534 -1.52315 7.31211 -89.8771 12.2611 -2.96886 0.57864 0.593337 -2.94052 0.708844 -21.969 -3.00538 -0.341198 -1.95632 -3.0054 -0.341206 95.3516 -49.3739 -92.6615 31.2972 -27.076 15.897 11.0869 3.15469 -123.687 -19.7152 -5.31757 23.3681 -100.786 -54.9617 64.671 8.82001 47.038 -34.4358 -14.4535 -6.28635 -97.2195 23.2874 3.24473 32.1339 -17.1175 -6.83054 -8.44477 -12.6757 -7.02884 0.365975 
43.0151 97.212 207.811 99.2429 -49.2624 98.0846 -174.227 1.24487 94.8567 -25.7738 18.0883 0.888953 65.834 6.44094 8.30492 37.4509 6.92472 8.4845 174.903 0.408977 89.0955 -15.1095 -1.12024 -1.75217 68.3027 -8.75937 0.585472 35.7051 -4.16874 1.19463 -1.49335 7.33152 -89.8471 12.2224 -2.89567 0.628694 0.554482 -2.86519 0.755617 -22.0066 -2.95063 -0.271406 -1.99391 -2.95063 -0.271407 95.3211 -49.6098 -92.6772 31.792 -27.8498 16.0804 11.103 3.06169 -123.597 -20.2388 -5.58665 23.4712 -99.8507 -54.3033 65.7373 8.96789 47.8476 -34.5645 -14.3205 -6.78778 -97.3203 23.6538 3.39541 31.0138 -17.2131 -6.85867 -8.44599 -12.7344 -7.03494 -0.0523447 
42.9655 96.7581 207.907 99.1408 -49.4091 97.6041 -173.12 2.65054 95.3377 -28.0192 18.1282 -0.09429 66.4314 7.75469 8.14526 38.4577 8.38268 8.36985 175.156 0.0819964 88.9988 -14.7885 -2.21427 -2.14397 69.8595 -10.033 -1.50852 36.0191 -4.22084 0.771275 -1.45785 7.31574 -89.7986 12.2547 -2.80195 0.716237 0.586464 -2.76772 0.838941 -21.973 -2.88757 -0.159687 -1.96035 -2.88756 -0.159689 95.2453 -49.6336 -92.7917 33.1025 -29.0498 17.0788 12.5369 2.41774 -124.689 -21.3378 -6.17659 24.0615 -98.972 -53.6874 66.7569 7.45839 48.0445 -33.1882 -12.5045 -6.69564 -98.3019 21.5192 2.42854 33.2669 -17.5705 -7.01663 -8.38209 -12.5218 -7.20606 -0.292265 
42.9226 96.1214 207.883 98.8495 -49.2055 96.9733 -171.844 5.3599 95.8383 -32.4447 18.3408 -0.942423 66.9159 9.0246 7.47491 39.9238 10.5439 8.02366 175.127 0.477209 88.6918 -15.6823 -2.55131 -2.33892 72.2982 -11.7033 -2.46229 37.8398 -4.87512 -0.450685 -1.45486 7.3057 -89.7251 12.2759 -2.76108 0.859213 0.607486 -2.7206 0.979975 -21.9512 -2.89155 -0.0109952 -1.93857 -2.89155 -0.011 95.1461 -49.9287 -92.9053 34.2337 -30.0875 17.9276 12.3003 2.82664 -125.042 -21.5521 -6.26546 23.7901 -97.9085 -52.9453 68.012 6.86208 48.2716 -32.3961 -13.6565 -6.76662 -99.7602 18.4057 0.920536 36.0261 -17.3585 -6.91255 -8.25899 -12.7168 -7.06489 -0.52247 
42.9156 95.4735 207.71 98.88 -48.3478 96.7831 -170.7 9.13246 96.4129 -39.0841 19.4243 -1.26164 67.0456 9.17829 5.26891 41.0571 11.5586 9.31973 174.841 0.32151 88.4714 -16.0254 -2.21463 -2.27424 74.1748 -13.054 -3.50873 40.8594 -6.24808 -1.62387 -1.47525 7.33735 -89.7234 12.2129 -2.80119 0.864601 0.544612 -2.76043 0.98713 -22.0148 -2.93143 -0.0179491 -2.00214 -2.93146 -0.0179581 95.2428 -49.6859 -92.7886 34.5393 -29.9902 18.2309 10.7509 3.07056 -124.993 -21.2201 -6.11751 24.048 -97.7143 -52.8913 68.2705 7.60241 48.5929 -32.1058 -13.159 -6.56615 -100.859 19.8055 1.56163 34.2072 -17.2145 -7.04455 -7.65068 -12.5434 -7.14094 -1.08097 
43.1087 95.0183 207.5 99.1557 -47.5107 97.0259 -169.928 12.7548 97.2213 -45.6964 20.4131 -0.995376 66.9079 8.62533 1.85428 43.246 13.1802 13.0348 174.3 -0.0446159 88.2053 -16.3304 -1.56425 -2.04747 75.8629 -14.3074 -3.32167 42.5568 -6.83485 -3.27053 -1.47093 7.38905 -89.727 12.1093 -2.79498 0.852779 0.440964 -2.75472 0.97504 -22.1183 -2.92195 -0.0273476 -2.10568 -2.92196 -0.0273561 95.0908 -49.6496 -93.0298 34.9891 -30.167 18.9582 11.6421 3.06137 -125.48 -21.2233 -6.09034 23.6264 -97.0616 -52.4294 69.0531 8.02688 49.4297 -33.2869 -11.3207 -6.9301 -100.228 22.7439 2.91408 29.9183 -17.3449 -7.03171 -7.81776 -12.2001 -7.14257 -1.0822 
43.5286 94.6298 207.323 99.2789 -47.0441 97.1162 -169.822 15.585 97.9394 -50.9987 23.1487 -0.408917 66.2807 7.84317 1.29717 45.0232 14.9523 15.3738 173.736 -0.0957223 87.735 -16.809 -0.964512 -1.81229 77.2852 -15.1859 -3.59579 44.3428 -7.85528 -3.20165 -1.42455 7.42433 -89.7234 12.038 -2.7015 0.847088 0.369521 -2.66161 0.965238 -22.1882 -2.8311 -0.00461986 -2.17552 -2.8311 -0.00462369 95.0957 -49.9684 -92.9777 34.4625 -31.211 19.257 9.85222 4.16278 -125.673 -22.3928 -6.74096 24.4143 -97.4411 -52.6331 68.5764 7.74797 48.8915 -33.2775 -10.6516 -6.75994 -99.5995 17.0919 0.30437 35.4884 -17.5259 -7.09496 -8.41746 -12.2363 -7.24971 -0.771129 
44.1366 94.4016 207.172 99.2942 -47.0016 97.3122 -170.121 17.2205 98.9472 -53.2722 25.5657 0.225439 66.1991 8.4554 5.91113 44.1609 13.309 16.3021 173.404 -0.115499 87.4716 -17.1232 0.0962168 -1.70043 78.2766 -15.5749 -2.5309 45.3084 -8.22047 -4.18911 -1.37742 7.43518 -89.7388 12.0154 -2.6152 0.806012 0.346749 -2.57722 0.920382 -22.2095 -2.73647 -0.0178078 -2.19689 -2.73646 -0.0178124 95.0253 -49.8751 -93.1001 33.6924 -30.8904 18.9334 10.4205 3.19489 -125.338 -22.476 -6.78558 24.4282 -97.5677 -52.7689 68.4393 7.29198 48.5571 -33.5932 -13.1488 -6.86398 -99.2124 18.9111 1.23301 33.4219 -17.8362 -7.08744 -8.82557 -12.3693 -7.28325 -0.629786 
